name Walk7.mot
datacolumns 19
datarows 27
range 1.45100000 1.47700000
endheader

                time	   L_ground_force_vx	   L_ground_force_vy	   L_ground_force_vz	   L_ground_force_px	   L_ground_force_py	   L_ground_force_pz	   R_ground_force_vx	   R_ground_force_vy	   R_ground_force_vz	   R_ground_force_px	   R_ground_force_py	   R_ground_force_pz	   L_ground_torque_x	   L_ground_torque_y	   L_ground_torque_z	   R_ground_torque_x	   R_ground_torque_y	   R_ground_torque_z	
          1.45100000	          0.00000000	          0.00000000	          0.00000000	          0.00000000	          0.00000000	          0.00000000	          0.00000000	          0.00000000	          0.00000000	          0.00000000	          0.00000000	          0.00000000	          0.00000000	          0.00000000	          0.00000000	          0.00000000	          0.00000000	          0.00000000	
          1.45200000	          0.00000000	          0.00000000	          0.00000000	          0.00000000	          0.00000000	          0.00000000	          0.00000000	          0.00000000	          0.00000000	          0.00000000	          0.00000000	          0.00000000	          0.00000000	          0.00000000	          0.00000000	          0.00000000	          0.00000000	          0.00000000	
          1.45300000	          0.00000000	          0.00000000	          0.00000000	          0.00000000	          0.00000000	          0.00000000	          0.00000000	          0.00000000	          0.00000000	          0.00000000	          0.00000000	          0.00000000	          0.00000000	          0.00000000	          0.00000000	          0.00000000	          0.00000000	          0.00000000	
          1.45400000	          0.00000000	          0.00000000	          0.00000000	          0.00000000	          0.00000000	          0.00000000	          0.00000000	          0.00000000	          0.00000000	          0.00000000	          0.00000000	          0.00000000	          0.00000000	          0.00000000	          0.00000000	          0.00000000	          0.00000000	          0.00000000	
          1.45500000	          0.00000000	          0.00000000	          0.00000000	          0.00000000	          0.00000000	          0.00000000	          0.00000000	          0.00000000	          0.00000000	          0.00000000	          0.00000000	          0.00000000	          0.00000000	          0.00000000	          0.00000000	          0.00000000	          0.00000000	          0.00000000	
          1.45600000	          0.00000000	          0.00000000	          0.00000000	          0.00000000	          0.00000000	          0.00000000	          0.00000000	          0.00000000	          0.00000000	          0.00000000	          0.00000000	          0.00000000	          0.00000000	          0.00000000	          0.00000000	          0.00000000	          0.00000000	          0.00000000	
          1.45700000	          0.00000000	          0.00000000	          0.00000000	          0.00000000	          0.00000000	          0.00000000	          0.00000000	          0.00000000	          0.00000000	          0.00000000	          0.00000000	          0.00000000	          0.00000000	          0.00000000	          0.00000000	          0.00000000	          0.00000000	          0.00000000	
          1.45800000	          0.00000000	          0.00000000	          0.00000000	          0.00000000	          0.00000000	          0.00000000	         -6.56576000	         10.56078216	          0.14398163	         -0.24260843	          0.00000000	          0.30258381	          0.00000000	          0.00000000	          0.00000000	          0.00000000	          0.04455878	          0.00000000	
          1.45900000	          0.00000000	          0.00000000	          0.00000000	          0.00000000	          0.00000000	          0.00000000	        -10.69343283	         20.07345540	          0.14906547	         -0.25153517	          0.00000000	          0.30564893	          0.00000000	          0.00000000	          0.00000000	          0.00000000	          0.09131860	          0.00000000	
          1.46000000	          0.00000000	          0.00000000	          0.00000000	          0.00000000	          0.00000000	          0.00000000	        -15.65304544	         34.03212192	          0.16080960	         -0.25747501	          0.00000000	          0.30579390	          0.00000000	          0.00000000	          0.00000000	          0.00000000	          0.13319781	          0.00000000	
          1.46100000	          0.00000000	          0.00000000	          0.00000000	          0.00000000	          0.00000000	          0.00000000	        -21.42962005	         54.00687644	          0.24627543	         -0.26163019	          0.00000000	          0.30466847	          0.00000000	          0.00000000	          0.00000000	          0.00000000	          0.17469013	          0.00000000	
          1.46200000	          0.00000000	          0.00000000	          0.00000000	          0.00000000	          0.00000000	          0.00000000	        -27.87388429	         81.39813070	          0.51437625	         -0.26451290	          0.00000000	          0.30336942	          0.00000000	          0.00000000	          0.00000000	          0.00000000	          0.22695914	          0.00000000	
          1.46300000	          0.00000000	          0.00000000	          0.00000000	          0.00000000	          0.00000000	          0.00000000	        -34.53626328	        116.75329399	          1.11541982	         -0.26644191	          0.00000000	          0.30232647	          0.00000000	          0.00000000	          0.00000000	          0.00000000	          0.29254259	          0.00000000	
          1.46400000	          0.00000000	          0.00000000	          0.00000000	          0.00000000	          0.00000000	          0.00000000	        -40.71107644	        159.22759328	          2.23484118	         -0.26763882	          0.00000000	          0.30160068	          0.00000000	          0.00000000	          0.00000000	          0.00000000	          0.36322675	          0.00000000	
          1.46500000	          0.00000000	          0.00000000	          0.00000000	          0.00000000	          0.00000000	          0.00000000	        -45.66251268	        206.42239214	          4.06279401	         -0.26829423	          0.00000000	          0.30112324	          0.00000000	          0.00000000	          0.00000000	          0.00000000	          0.42605110	          0.00000000	
          1.46600000	          0.00000000	          0.00000000	          0.00000000	          0.00000000	          0.00000000	          0.00000000	        -48.89572995	        254.81305623	          6.71585748	         -0.26859679	          0.00000000	          0.30079081	          0.00000000	          0.00000000	          0.00000000	          0.00000000	          0.47091853	          0.00000000	
          1.46700000	          0.00000000	          0.00000000	          0.00000000	          0.00000000	          0.00000000	          0.00000000	        -50.31463869	        300.61745725	         10.15778282	         -0.26870578	          0.00000000	          0.30051704	          0.00000000	          0.00000000	          0.00000000	          0.00000000	          0.49488771	          0.00000000	
          1.46800000	          0.00000000	          0.00000000	          0.00000000	          0.00000000	          0.00000000	          0.00000000	        -50.20100175	        340.65405686	         14.20034552	         -0.26870121	          0.00000000	          0.30025431	          0.00000000	          0.00000000	          0.00000000	          0.00000000	          0.50140065	          0.00000000	
          1.46900000	          0.00000000	          0.00000000	          0.00000000	          0.00000000	          0.00000000	          0.00000000	        -49.06628203	        372.83712995	         18.57402549	         -0.26858757	          0.00000000	          0.29998851	          0.00000000	          0.00000000	          0.00000000	          0.00000000	          0.49813047	          0.00000000	
          1.47000000	          0.00000000	          0.00000000	          0.00000000	          0.00000000	          0.00000000	          0.00000000	        -47.46564142	        396.29235354	         23.00622385	         -0.26835980	          0.00000000	          0.29972071	          0.00000000	          0.00000000	          0.00000000	          0.00000000	          0.49317784	          0.00000000	
          1.47100000	          0.00000000	          0.00000000	          0.00000000	          0.00000000	          0.00000000	          0.00000000	        -45.84581591	        411.25433503	         27.27364706	         -0.26804149	          0.00000000	          0.29944727	          0.00000000	          0.00000000	          0.00000000	          0.00000000	          0.48913643	          0.00000000	
          1.47200000	          0.00000000	          0.00000000	          0.00000000	          0.00000000	          0.00000000	          0.00000000	        -44.47520336	        418.84744260	         31.21849383	         -0.26766413	          0.00000000	          0.29915198	          0.00000000	          0.00000000	          0.00000000	          0.00000000	          0.48149244	          0.00000000	
          1.47300000	          0.00000000	          0.00000000	          0.00000000	          0.00000000	          0.00000000	          0.00000000	        -43.46378445	        420.78714791	         34.74352397	         -0.26724679	          0.00000000	          0.29882817	          0.00000000	          0.00000000	          0.00000000	          0.00000000	          0.46472699	          0.00000000	
          1.47400000	          0.00000000	          0.00000000	          0.00000000	          0.00000000	          0.00000000	          0.00000000	        -42.82741080	        419.04604330	         37.80530414	         -0.26680470	          0.00000000	          0.29850673	          0.00000000	          0.00000000	          0.00000000	          0.00000000	          0.43780524	          0.00000000	
          1.47500000	          0.00000000	          0.00000000	          0.00000000	          0.00000000	          0.00000000	          0.00000000	        -42.54238001	        415.55305427	         40.40319259	         -0.26636205	          0.00000000	          0.29824407	          0.00000000	          0.00000000	          0.00000000	          0.00000000	          0.40273207	          0.00000000	
          1.47600000	          0.00000000	          0.00000000	          0.00000000	          0.00000000	          0.00000000	          0.00000000	        -42.57135551	        411.99489553	         42.56282699	         -0.26594408	          0.00000000	          0.29809207	          0.00000000	          0.00000000	          0.00000000	          0.00000000	          0.36168044	          0.00000000	
          1.47700000	          0.00000000	          0.00000000	          0.00000000	          0.00000000	          0.00000000	          0.00000000	        -42.87159271	        409.71517143	         44.31703025	         -0.26556035	          0.00000000	          0.29807303	          0.00000000	          0.00000000	          0.00000000	          0.00000000	          0.31704272	          0.00000000	
